<svg xmlns="http://www.w3.org/2000/svg" version="1.1" xmlns:xlink="http://www.w3.org/1999/xlink" xmlns:svgjs="http://svgjs.dev/svgjs" width="2440" height="760" preserveAspectRatio="none" viewBox="0 0 2440 760">
    <g mask="url(&quot;#SvgjsMask1211&quot;)" fill="none">
        <rect width="2440" height="760" x="0" y="0" fill="rgba(240, 112, 161, 1)"></rect>
        <rect width="216" height="216" clip-path="url(&quot;#SvgjsClipPath1212&quot;)" x="1127.47" y="434.12" fill="url(&quot;#SvgjsPattern1213&quot;)" transform="rotate(173.92, 1235.47, 542.12)"></rect>
        <rect width="240" height="240" clip-path="url(&quot;#SvgjsClipPath1214&quot;)" x="108.97" y="81.44" fill="url(&quot;#SvgjsPattern1215&quot;)" transform="rotate(256.18, 228.97, 201.44)"></rect>
        <rect width="480" height="480" clip-path="url(&quot;#SvgjsClipPath1216&quot;)" x="1665.76" y="-187.95" fill="url(&quot;#SvgjsPattern1217&quot;)" transform="rotate(220.33, 1905.76, 52.05)"></rect>
        <rect width="60" height="60" clip-path="url(&quot;#SvgjsClipPath1218&quot;)" x="415.51" y="412.96" fill="url(&quot;#SvgjsPattern1219&quot;)" transform="rotate(72.24, 445.51, 442.96)"></rect>
        <circle r="63.333333333333336" cx="1626.27" cy="136.15" fill="#037b0b"></circle>
        <path d="M119.35 428.6 L117.67999999999999 379.71999999999997L84.67305482806493 438.001945171935z" stroke="#037b0b" stroke-width="1.88"></path>
        <rect width="312" height="312" clip-path="url(&quot;#SvgjsClipPath1220&quot;)" x="1114.8" y="42.88" fill="url(&quot;#SvgjsPattern1221&quot;)" transform="rotate(93.36, 1270.8, 198.88)"></rect>
        <path d="M503.84 640.07a5.6 5.6 0 1 0 9.79 5.44 5.6 5.6 0 1 0-9.79-5.44zM517.82 647.85a5.6 5.6 0 1 0 9.79 5.44 5.6 5.6 0 1 0-9.79-5.44zM531.8 655.63a5.6 5.6 0 1 0 9.79 5.44 5.6 5.6 0 1 0-9.79-5.44zM545.78 663.41a5.6 5.6 0 1 0 9.79 5.44 5.6 5.6 0 1 0-9.79-5.44zM468.1 638.49a5.6 5.6 0 1 0 9.78 5.45 5.6 5.6 0 1 0-9.78-5.45zM482.08 646.27a5.6 5.6 0 1 0 9.79 5.45 5.6 5.6 0 1 0-9.79-5.45zM496.06 654.05a5.6 5.6 0 1 0 9.79 5.45 5.6 5.6 0 1 0-9.79-5.45zM510.04 661.83a5.6 5.6 0 1 0 9.79 5.45 5.6 5.6 0 1 0-9.79-5.45zM432.35 636.92a5.6 5.6 0 1 0 9.79 5.44 5.6 5.6 0 1 0-9.79-5.44zM446.34 644.7a5.6 5.6 0 1 0 9.78 5.44 5.6 5.6 0 1 0-9.78-5.44zM460.32 652.47a5.6 5.6 0 1 0 9.79 5.45 5.6 5.6 0 1 0-9.79-5.45zM474.3 660.25a5.6 5.6 0 1 0 9.79 5.45 5.6 5.6 0 1 0-9.79-5.45z" stroke="#037b0b" stroke-width="1" stroke-dasharray="3, 3"></path>
        <rect width="154.8" height="154.8" clip-path="url(&quot;#SvgjsClipPath1222&quot;)" x="2082.92" y="651.03" fill="url(&quot;#SvgjsPattern1223&quot;)" transform="rotate(241.35, 2160.32, 728.43)"></rect>
        <rect width="276" height="276" clip-path="url(&quot;#SvgjsClipPath1224&quot;)" x="1115.63" y="116.15" fill="url(&quot;#SvgjsPattern1225&quot;)" transform="rotate(335.72, 1253.63, 254.15)"></rect>
        <rect width="432" height="432" clip-path="url(&quot;#SvgjsClipPath1226&quot;)" x="1201.91" y="402.88" fill="url(&quot;#SvgjsPattern1227&quot;)" transform="rotate(276.53, 1417.91, 618.88)"></rect>
        <rect width="121.2" height="121.2" clip-path="url(&quot;#SvgjsClipPath1228&quot;)" x="217.49" y="616.05" fill="url(&quot;#SvgjsPattern1229&quot;)" transform="rotate(284.45, 278.09, 676.65)"></rect>
        <path d="M841.12 566.93a5.6 5.6 0 1 0-6.8-8.89 5.6 5.6 0 1 0 6.8 8.89zM831.41 554.22a5.6 5.6 0 1 0-6.81-8.9 5.6 5.6 0 1 0 6.81 8.9zM821.69 541.51a5.6 5.6 0 1 0-6.8-8.9 5.6 5.6 0 1 0 6.8 8.9zM811.97 528.8a5.6 5.6 0 1 0-6.8-8.9 5.6 5.6 0 1 0 6.8 8.9z" fill="#037b0b"></path>
        <rect width="120" height="120" clip-path="url(&quot;#SvgjsClipPath1230&quot;)" x="411.56" y="76.49" fill="url(&quot;#SvgjsPattern1231&quot;)" transform="rotate(247.41, 471.56, 136.49)"></rect>
        <rect width="72" height="72" clip-path="url(&quot;#SvgjsClipPath1232&quot;)" x="706.23" y="308.64" fill="url(&quot;#SvgjsPattern1233&quot;)" transform="rotate(260.59, 742.23, 344.64)"></rect>
    </g>
    <defs>
        <mask id="SvgjsMask1211">
            <rect width="2440" height="760" fill="#ffffff"></rect>
        </mask>
        <pattern x="0" y="0" width="216" height="6" patternUnits="userSpaceOnUse" id="SvgjsPattern1213">
            <rect width="216" height="3" x="0" y="0" fill="#d3b714"></rect>
            <rect width="216" height="3" x="0" y="3" fill="rgba(0, 0, 0, 0)"></rect>
        </pattern>
        <clipPath id="SvgjsClipPath1212">
            <circle r="54" cx="1235.47" cy="542.12"></circle>
        </clipPath>
        <pattern x="0" y="0" width="6" height="6" patternUnits="userSpaceOnUse" id="SvgjsPattern1215">
            <path d="M0 6L3 0L6 6" stroke="#d3b714" fill="none"></path>
        </pattern>
        <clipPath id="SvgjsClipPath1214">
            <circle r="60" cx="228.97" cy="201.44"></circle>
        </clipPath>
        <pattern x="0" y="0" width="480" height="6" patternUnits="userSpaceOnUse" id="SvgjsPattern1217">
            <rect width="480" height="3" x="0" y="0" fill="#037b0b"></rect>
            <rect width="480" height="3" x="0" y="3" fill="rgba(0, 0, 0, 0)"></rect>
        </pattern>
        <clipPath id="SvgjsClipPath1216">
            <circle r="120" cx="1905.76" cy="52.05"></circle>
        </clipPath>
        <pattern x="0" y="0" width="6" height="6" patternUnits="userSpaceOnUse" id="SvgjsPattern1219">
            <path d="M3 1L3 5M1 3L5 3" stroke="#d3b714" fill="none" stroke-width="1"></path>
        </pattern>
        <clipPath id="SvgjsClipPath1218">
            <circle r="15" cx="445.51" cy="442.96"></circle>
        </clipPath>
        <pattern x="0" y="0" width="6" height="6" patternUnits="userSpaceOnUse" id="SvgjsPattern1221">
            <path d="M0 6L3 0L6 6" stroke="#e73635" fill="none"></path>
        </pattern>
        <clipPath id="SvgjsClipPath1220">
            <circle r="78" cx="1270.8" cy="198.88"></circle>
        </clipPath>
        <pattern x="0" y="0" width="12.9" height="12.9" patternUnits="userSpaceOnUse" id="SvgjsPattern1223">
            <path d="M0 12.9L6.45 0L12.9 12.9" stroke="#037b0b" fill="none"></path>
        </pattern>
        <clipPath id="SvgjsClipPath1222">
            <circle r="38.7" cx="2160.32" cy="728.43"></circle>
        </clipPath>
        <pattern x="0" y="0" width="6" height="6" patternUnits="userSpaceOnUse" id="SvgjsPattern1225">
            <path d="M0 6L3 0L6 6" stroke="#d3b714" fill="none"></path>
        </pattern>
        <clipPath id="SvgjsClipPath1224">
            <circle r="69" cx="1253.63" cy="254.15"></circle>
        </clipPath>
        <pattern x="0" y="0" width="432" height="6" patternUnits="userSpaceOnUse" id="SvgjsPattern1227">
            <rect width="432" height="3" x="0" y="0" fill="#e73635"></rect>
            <rect width="432" height="3" x="0" y="3" fill="rgba(0, 0, 0, 0)"></rect>
        </pattern>
        <clipPath id="SvgjsClipPath1226">
            <circle r="108" cx="1417.91" cy="618.88"></circle>
        </clipPath>
        <pattern x="0" y="0" width="121.2" height="12.12" patternUnits="userSpaceOnUse" id="SvgjsPattern1229">
            <rect width="121.2" height="6.06" x="0" y="0" fill="#037b0b"></rect>
            <rect width="121.2" height="6.06" x="0" y="6.06" fill="rgba(0, 0, 0, 0)"></rect>
        </pattern>
        <clipPath id="SvgjsClipPath1228">
            <circle r="30.3" cx="278.09" cy="676.65"></circle>
        </clipPath>
        <pattern x="0" y="0" width="6" height="6" patternUnits="userSpaceOnUse" id="SvgjsPattern1231">
            <path d="M3 1L3 5M1 3L5 3" stroke="#e73635" fill="none" stroke-width="1"></path>
        </pattern>
        <clipPath id="SvgjsClipPath1230">
            <circle r="30" cx="471.56" cy="136.49"></circle>
        </clipPath>
        <pattern x="0" y="0" width="6" height="6" patternUnits="userSpaceOnUse" id="SvgjsPattern1233">
            <path d="M3 1L3 5M1 3L5 3" stroke="#037b0b" fill="none" stroke-width="1"></path>
        </pattern>
        <clipPath id="SvgjsClipPath1232">
            <circle r="18" cx="742.23" cy="344.64"></circle>
        </clipPath>
    </defs>
</svg>