<svg xmlns="http://www.w3.org/2000/svg" version="1.1" xmlns:xlink="http://www.w3.org/1999/xlink" xmlns:svgjs="http://svgjs.dev/svgjs" width="2040" height="1100" preserveAspectRatio="none" viewBox="0 0 2040 1100">
    <g mask="url(&quot;#SvgjsMask1200&quot;)" fill="none">
        <rect width="2040" height="1100" x="0" y="0" fill="rgba(22, 255, 189, 1)"></rect>
        <path d="M0,952.764C175.611,990.021,362.492,891.432,495.177,770.51C619.701,657.025,633.439,474.31,696.448,318.057C756.105,170.117,851.596,36.469,855.486,-123C859.788,-299.37,832.329,-487.822,719.414,-623.376C605.817,-759.749,426.308,-832.963,249.667,-850.286C87.441,-866.196,-54.671,-764.566,-209.798,-714.505C-359.921,-666.059,-544.509,-680.545,-647.249,-560.844C-749.942,-441.197,-723.102,-262.724,-732.646,-105.339C-741.43,39.508,-767.17,191.007,-700.663,319.982C-635.295,446.747,-482.198,490.017,-376.349,585.611C-243.593,705.505,-174.987,915.639,0,952.764" fill="#00c28b"></path>
        <path d="M2040 2026.933C2214.271 2021.989 2378.147 1948.154 2519.42 1845.993 2655.518 1747.574 2789.438 1622.799 2825.649 1458.7939999999999 2860.133 1302.609 2744.077 1159.514 2705.247 1004.352 2671.331 868.826 2679.275 726.846 2611.853 604.4870000000001 2533.191 461.72900000000004 2440.621 311.27599999999995 2289.584 249.99400000000003 2134.257 186.97199999999998 1944.11 192.83100000000002 1797.483 274.06399999999996 1657.79 351.45500000000004 1634.561 537.925 1538.962 665.848 1452.597 781.414 1319.949 855.5409999999999 1263.6599999999999 988.379 1196.649 1146.521 1138.984 1324.09 1190.627 1487.896 1244.063 1657.3890000000001 1392.722 1778.4740000000002 1542.7730000000001 1873.701 1692.2350000000001 1968.554 1863.051 2031.953 2040 2026.933" fill="#69ffd5"></path>
    </g>
    <defs>
        <mask id="SvgjsMask1200">
            <rect width="2040" height="1100" fill="#ffffff"></rect>
        </mask>
    </defs>
</svg>